<svg id="svg" version="1.1" xmlns="http://www.w3.org/2000/svg" xmlns:xlink="http://www.w3.org/1999/xlink" width="400" height="146.35416666666666" viewBox="0, 0, 400,146.35416666666666"><g id="svgg"><path id="path0" d="M135.458 55.761 C 135.390 55.831,135.333 63.939,135.333 73.778 L 135.333 91.667 141.423 91.667 C 149.499 91.667,151.869 91.388,154.878 90.084 C 161.273 87.313,164.331 81.975,164.331 73.583 C 164.331 63.456,159.814 57.738,150.500 56.075 C 148.796 55.770,135.715 55.497,135.458 55.761 M170.833 73.667 L 170.833 91.669 182.708 91.626 L 194.583 91.583 194.583 87.667 L 194.583 83.750 187.455 83.707 L 180.326 83.663 180.371 80.457 L 180.417 77.250 186.208 77.206 L 192.000 77.162 192.000 73.248 L 192.000 69.333 186.167 69.333 L 180.333 69.333 180.333 66.500 L 180.333 63.667 187.170 63.667 L 194.006 63.667 193.961 59.708 L 193.917 55.750 182.375 55.707 L 170.833 55.664 170.833 73.667 M201.667 73.667 L 201.667 91.667 206.331 91.667 L 210.996 91.667 211.040 85.625 L 211.083 79.583 212.868 79.536 C 214.571 79.491,214.662 79.506,214.886 79.869 C 215.015 80.079,216.450 82.819,218.075 85.958 L 221.030 91.667 226.273 91.667 L 231.516 91.667 230.895 90.542 C 230.554 89.923,229.098 87.317,227.661 84.750 C 224.025 78.258,223.709 77.644,223.959 77.550 C 229.734 75.384,231.472 64.119,226.759 59.397 C 223.762 56.394,220.242 55.674,208.542 55.669 L 201.667 55.667 201.667 73.667 M236.500 73.664 L 236.500 91.667 241.251 91.667 L 246.001 91.667 245.959 73.708 L 245.917 55.750 241.208 55.706 L 236.500 55.661 236.500 73.664 M249.500 55.804 C 249.500 55.880,249.866 57.174,250.312 58.679 C 250.759 60.185,251.777 63.629,252.574 66.333 C 253.371 69.037,254.538 72.975,255.168 75.083 C 255.797 77.192,257.037 81.392,257.923 84.417 C 258.809 87.442,259.649 90.310,259.790 90.792 L 260.046 91.667 265.766 91.667 L 271.486 91.667 271.836 90.458 C 272.029 89.794,272.551 88.050,272.998 86.583 C 273.444 85.117,274.420 81.817,275.166 79.250 C 275.913 76.683,277.075 72.746,277.748 70.500 C 278.421 68.254,279.470 64.692,280.079 62.583 C 280.687 60.475,281.369 58.165,281.593 57.450 C 281.817 56.735,282.000 56.041,282.000 55.908 C 282.000 55.703,281.287 55.667,277.258 55.667 L 272.516 55.667 272.340 56.292 C 272.243 56.635,271.559 59.542,270.819 62.750 C 266.842 79.991,266.161 82.833,266.003 82.833 C 265.865 82.833,265.388 80.899,263.163 71.333 C 261.743 65.227,259.494 55.966,259.389 55.792 C 259.286 55.620,249.500 55.633,249.500 55.804 M285.667 73.666 L 285.667 91.667 297.500 91.667 L 309.333 91.667 309.333 87.667 L 309.333 83.667 302.250 83.667 L 295.167 83.667 295.167 80.417 L 295.167 77.167 301.003 77.167 L 306.839 77.167 306.795 73.292 L 306.750 69.417 300.958 69.373 L 295.167 69.329 295.167 66.498 L 295.167 63.667 302.003 63.667 L 308.839 63.667 308.795 59.708 L 308.750 55.750 297.208 55.707 L 285.667 55.664 285.667 73.666 M316.458 55.760 C 316.390 55.831,316.333 63.939,316.333 73.778 L 316.333 91.667 322.507 91.667 C 329.197 91.667,331.068 91.537,333.500 90.906 C 341.999 88.699,346.253 81.590,345.339 71.119 C 344.590 62.537,340.387 57.866,331.868 56.150 C 330.007 55.775,316.769 55.440,316.458 55.760 M217.696 63.544 C 219.558 64.140,220.245 65.160,220.248 67.333 C 220.253 70.767,218.496 72.016,213.601 72.061 L 211.083 72.083 211.039 67.836 C 211.014 65.500,211.034 63.485,211.083 63.357 C 211.208 63.032,216.571 63.184,217.696 63.544 M148.235 63.583 C 152.505 64.488,154.350 67.047,154.616 72.431 C 154.989 80.004,152.003 84.000,145.973 84.000 L 144.833 84.000 144.833 73.667 L 144.833 63.333 145.958 63.336 C 146.577 63.338,147.602 63.449,148.235 63.583 M329.381 63.579 C 334.227 64.606,336.462 68.898,335.675 75.667 C 335.039 81.139,332.516 83.684,327.458 83.957 L 325.833 84.045 325.833 73.689 L 325.833 63.333 327.042 63.336 C 327.706 63.338,328.759 63.447,329.381 63.579 " stroke="none" fill="#fbfbfb" fill-rule="evenodd"></path><path id="path1" d="M0.500 73.167 L 0.500 145.833 200.042 145.792 L 399.583 145.750 399.583 73.167 L 399.583 0.583 200.042 0.542 L 0.500 0.500 0.500 73.167 M73.748 37.329 L 75.750 39.324 79.917 39.420 C 87.389 39.591,90.283 40.101,95.135 42.102 C 117.912 51.497,123.538 81.370,105.727 98.348 C 98.848 104.905,91.958 107.540,80.939 107.826 L 75.795 107.960 73.853 109.897 L 71.912 111.833 69.289 111.833 C 67.847 111.833,66.667 111.777,66.668 111.708 C 66.668 111.640,68.337 109.924,70.376 107.896 L 74.083 104.208 79.917 104.036 C 88.589 103.782,93.099 102.637,98.083 99.425 C 118.326 86.378,116.834 57.141,95.379 46.440 C 90.759 44.136,87.512 43.505,79.667 43.386 L 74.250 43.304 70.458 39.528 C 68.373 37.452,66.667 35.658,66.667 35.543 C 66.667 35.384,67.277 35.333,69.206 35.333 L 71.745 35.333 73.748 37.329 M72.244 47.583 L 80.301 55.667 81.530 55.667 C 92.013 55.667,99.866 63.326,99.900 73.583 C 99.934 83.737,92.843 91.036,82.392 91.605 L 80.366 91.716 72.309 99.775 L 64.251 107.833 61.626 107.833 C 60.182 107.833,59.000 107.776,59.000 107.706 C 59.000 107.637,63.444 103.144,68.875 97.724 L 78.750 87.868 81.583 87.781 C 94.211 87.392,100.648 74.309,92.928 64.722 C 90.229 61.371,87.091 59.946,81.750 59.647 L 78.750 59.480 68.875 49.615 C 63.444 44.190,59.000 39.695,59.000 39.626 C 59.000 39.556,60.167 39.500,61.594 39.500 L 64.187 39.500 72.244 47.583 M64.833 73.667 L 64.833 95.922 62.950 97.800 C 61.914 98.833,61.014 99.625,60.950 99.561 C 60.797 99.409,60.797 47.925,60.950 47.772 C 61.014 47.708,61.914 48.500,62.950 49.533 L 64.833 51.411 64.833 73.667 M87.583 48.148 C 96.726 50.305,104.013 56.870,106.837 65.495 C 111.673 80.270,102.731 95.825,87.464 99.199 C 85.732 99.582,76.667 99.868,76.667 99.540 C 76.667 99.451,77.484 98.619,78.483 97.689 L 80.300 96.000 81.192 96.000 C 101.650 95.997,111.990 72.328,97.766 58.062 C 93.441 53.724,88.077 51.500,81.939 51.500 L 80.338 51.500 78.502 49.698 C 77.493 48.707,76.667 47.837,76.667 47.764 C 76.667 47.451,86.020 47.780,87.583 48.148 M70.706 55.289 L 72.500 57.078 72.500 73.667 L 72.500 90.255 70.583 92.167 L 68.667 94.078 68.667 73.789 C 68.667 62.630,68.722 53.500,68.789 53.500 C 68.856 53.500,69.719 54.305,70.706 55.289 M148.243 55.673 C 159.457 56.583,164.806 62.799,164.447 74.500 C 164.140 84.478,159.428 90.104,150.218 91.487 C 149.507 91.593,146.201 91.667,142.093 91.667 L 135.167 91.667 135.167 73.694 C 135.167 63.810,135.217 55.672,135.278 55.611 C 135.455 55.433,145.908 55.483,148.243 55.673 M194.128 59.708 L 194.172 63.833 187.336 63.833 L 180.500 63.833 180.500 66.500 L 180.500 69.167 186.336 69.167 L 192.172 69.167 192.128 73.292 L 192.083 77.417 186.292 77.460 L 180.500 77.504 180.500 80.585 L 180.500 83.667 187.583 83.667 L 194.667 83.667 194.667 87.667 L 194.667 91.667 182.667 91.667 L 170.667 91.667 170.667 73.694 C 170.667 63.810,170.717 55.672,170.779 55.610 C 170.841 55.548,176.109 55.517,182.487 55.541 L 194.083 55.583 194.128 59.708 M219.667 55.907 C 223.986 56.741,227.122 58.714,228.421 61.415 C 231.246 67.289,229.299 74.798,224.212 77.645 C 223.939 77.797,224.333 78.705,225.397 80.381 C 225.700 80.859,226.626 82.487,227.454 84.000 C 228.282 85.513,229.113 87.013,229.302 87.333 C 230.048 88.603,231.667 91.519,231.667 91.593 C 231.667 91.636,229.210 91.651,226.208 91.627 L 220.750 91.583 218.322 86.833 C 216.987 84.221,215.623 81.596,215.291 81.000 L 214.688 79.917 212.927 79.869 L 211.167 79.822 211.167 85.744 L 211.167 91.667 206.333 91.667 L 201.500 91.667 201.500 73.566 L 201.500 55.465 209.875 55.549 C 216.690 55.618,218.514 55.685,219.667 55.907 M246.000 73.583 L 246.000 91.667 241.167 91.667 L 236.333 91.667 236.333 73.694 C 236.333 63.810,236.383 55.672,236.444 55.611 C 236.506 55.550,238.681 55.500,241.278 55.500 L 246.000 55.500 246.000 73.583 M259.572 55.649 C 259.623 55.731,260.377 58.824,261.247 62.524 C 262.118 66.223,263.052 70.112,263.322 71.167 C 263.593 72.221,264.283 75.202,264.857 77.792 C 265.430 80.382,265.959 82.441,266.032 82.368 C 266.199 82.201,266.658 80.272,268.263 73.000 C 268.961 69.837,269.756 66.387,270.030 65.333 C 270.303 64.279,270.898 61.767,271.353 59.750 C 271.807 57.733,272.218 55.952,272.267 55.792 C 272.408 55.329,282.167 55.343,282.167 55.806 C 282.167 55.975,281.560 58.168,280.820 60.681 C 280.079 63.194,278.654 68.063,277.654 71.500 C 276.653 74.938,275.678 78.200,275.487 78.750 C 275.296 79.300,274.377 82.412,273.444 85.667 L 271.748 91.583 265.815 91.627 L 259.881 91.671 258.921 88.294 C 258.392 86.436,257.897 84.795,257.819 84.647 C 257.742 84.499,256.884 81.611,255.914 78.230 C 254.943 74.850,253.920 71.385,253.641 70.532 C 253.037 68.689,249.512 56.618,249.384 55.958 L 249.296 55.500 254.388 55.500 C 257.196 55.500,259.522 55.567,259.572 55.649 M308.917 59.667 L 308.917 63.750 302.042 63.794 L 295.167 63.837 295.167 66.502 L 295.167 69.167 301.086 69.167 L 307.006 69.167 306.961 73.292 L 306.917 77.417 301.042 77.460 L 295.167 77.504 295.167 80.585 L 295.167 83.667 302.333 83.667 L 309.500 83.667 309.500 87.667 L 309.500 91.667 297.500 91.667 L 285.500 91.667 285.500 73.582 L 285.500 55.498 297.208 55.541 L 308.917 55.583 308.917 59.667 M331.500 55.892 C 340.983 57.468,345.495 63.117,345.499 73.421 C 345.502 80.763,343.528 85.433,339.094 88.578 C 335.413 91.188,332.965 91.667,323.304 91.667 L 316.333 91.667 316.333 73.564 L 316.333 55.462 323.125 55.545 C 328.204 55.608,330.316 55.695,331.500 55.892 M211.167 67.667 L 211.167 72.000 213.125 71.999 C 217.936 71.996,219.797 70.869,220.117 67.767 C 220.452 64.524,218.529 63.333,212.963 63.333 L 211.167 63.333 211.167 67.667 M144.833 73.740 L 144.833 84.028 146.125 83.918 C 152.217 83.399,154.683 80.115,154.450 72.833 C 154.250 66.565,151.995 63.954,146.445 63.564 L 144.833 63.451 144.833 73.740 M326.000 73.735 L 326.000 84.020 327.208 83.917 C 333.249 83.400,335.408 80.659,335.414 73.500 C 335.419 66.499,333.419 63.999,327.458 63.558 L 326.000 63.450 326.000 73.735 " stroke="none" fill="#0c1c24" fill-rule="evenodd"></path><path id="path2" d="M70.600 39.349 L 74.282 43.032 80.016 43.177 C 86.908 43.352,88.411 43.569,92.250 44.942 C 117.489 53.972,119.693 88.634,95.807 100.880 C 90.944 103.373,87.974 103.985,79.956 104.145 L 74.328 104.258 70.664 107.919 C 68.649 109.933,67.000 111.637,67.000 111.707 C 67.000 111.776,68.062 111.833,69.360 111.833 L 71.720 111.833 73.735 109.848 L 75.750 107.863 80.083 107.753 C 89.534 107.513,95.191 105.913,101.241 101.767 C 122.844 86.968,120.467 54.725,96.917 43.090 C 91.805 40.564,87.309 39.676,79.583 39.664 L 75.917 39.659 73.849 37.663 L 71.781 35.667 69.349 35.667 L 66.918 35.667 70.600 39.349 M68.917 49.500 L 78.749 59.333 80.416 59.335 C 89.629 59.342,95.828 64.648,96.283 72.917 C 96.753 81.467,90.708 87.566,81.391 87.942 L 78.698 88.051 68.891 97.859 L 59.084 107.667 61.582 107.667 L 64.079 107.667 72.164 99.602 L 80.250 91.538 82.500 91.446 C 99.642 90.746,106.223 69.378,92.428 59.209 C 89.691 57.192,86.432 56.137,82.193 55.898 L 80.201 55.785 72.143 47.726 L 64.085 39.667 61.585 39.667 L 59.084 39.667 68.917 49.500 M78.645 49.562 L 80.367 51.290 82.892 51.377 C 100.884 52.001,110.813 72.666,100.015 87.016 C 95.785 92.637,89.971 95.685,82.974 95.948 L 80.365 96.046 78.557 97.874 L 76.750 99.701 80.750 99.612 C 88.001 99.451,92.801 97.995,97.417 94.557 C 111.922 83.755,111.418 62.212,96.426 52.139 C 91.727 48.983,87.463 47.833,80.449 47.833 L 76.923 47.833 78.645 49.562 M61.167 73.768 L 61.167 99.410 62.833 97.750 L 64.500 96.090 64.500 73.722 L 64.500 51.355 63.125 49.957 C 62.369 49.188,61.619 48.462,61.458 48.343 C 61.181 48.136,61.167 49.375,61.167 73.768 M68.835 73.664 L 68.833 93.744 70.583 92.000 L 72.333 90.256 72.333 73.685 L 72.333 57.114 70.585 55.349 L 68.837 53.583 68.835 73.664 M211.079 67.667 L 211.083 72.083 212.917 72.092 L 214.750 72.100 212.961 72.044 L 211.172 71.989 211.123 67.620 L 211.075 63.250 211.079 67.667 M211.075 85.583 C 211.075 88.883,211.097 90.257,211.125 88.636 C 211.152 87.015,211.152 84.315,211.125 82.636 C 211.098 80.957,211.075 82.283,211.075 85.583 " stroke="none" fill="#83c343" fill-rule="evenodd"></path><path id="path3" d="M0.111 0.111 C 0.050 0.172,-0.000 33.097,-0.000 73.278 L 0.000 146.333 200.000 146.333 L 400.000 146.333 399.959 73.208 L 399.917 0.083 200.070 0.042 C 90.154 0.019,0.172 0.050,0.111 0.111 M399.583 73.167 L 399.583 145.750 200.042 145.792 L 0.500 145.833 0.500 73.167 L 0.500 0.500 200.042 0.542 L 399.583 0.583 399.583 73.167 M66.667 35.543 C 66.667 35.658,68.375 37.460,70.463 39.546 L 74.260 43.340 77.838 43.292 L 81.417 43.243 77.832 43.205 L 74.247 43.167 70.540 39.457 C 68.501 37.417,66.833 35.692,66.833 35.624 C 66.833 35.556,67.941 35.500,69.294 35.500 L 71.755 35.500 73.750 37.500 L 75.745 39.500 77.331 39.465 L 78.917 39.430 77.325 39.376 L 75.734 39.322 73.744 37.328 L 71.755 35.333 69.211 35.333 C 67.278 35.333,66.667 35.384,66.667 35.543 M64.016 39.542 C 64.056 39.565,64.425 39.883,64.836 40.250 L 65.583 40.917 64.925 40.208 C 64.562 39.819,64.193 39.500,64.105 39.500 C 64.017 39.500,63.977 39.519,64.016 39.542 M83.458 39.621 C 83.756 39.658,84.244 39.658,84.542 39.621 C 84.840 39.584,84.596 39.553,84.000 39.553 C 83.404 39.553,83.160 39.584,83.458 39.621 M85.708 39.782 C 85.869 39.823,86.131 39.823,86.292 39.782 C 86.452 39.740,86.321 39.705,86.000 39.705 C 85.679 39.705,85.548 39.740,85.708 39.782 M91.250 40.833 C 91.433 40.912,91.696 40.977,91.833 40.977 C 91.991 40.977,91.960 40.924,91.750 40.833 C 91.567 40.755,91.304 40.690,91.167 40.690 C 91.009 40.690,91.040 40.743,91.250 40.833 M68.500 43.917 C 69.091 44.512,69.611 45.000,69.657 45.000 C 69.703 45.000,69.257 44.512,68.667 43.917 C 68.076 43.321,67.555 42.833,67.510 42.833 C 67.464 42.833,67.909 43.321,68.500 43.917 M83.708 43.453 C 83.960 43.491,84.373 43.491,84.625 43.453 C 84.877 43.415,84.671 43.383,84.167 43.383 C 83.662 43.383,83.456 43.415,83.708 43.453 M85.708 43.615 C 85.869 43.657,86.131 43.657,86.292 43.615 C 86.452 43.573,86.321 43.539,86.000 43.539 C 85.679 43.539,85.548 43.573,85.708 43.615 M98.500 43.741 C 98.500 43.787,98.725 43.941,99.000 44.083 C 99.275 44.226,99.500 44.304,99.500 44.259 C 99.500 44.213,99.275 44.059,99.000 43.917 C 98.725 43.774,98.500 43.696,98.500 43.741 M99.667 44.384 C 99.667 44.422,100.098 44.730,100.625 45.068 C 101.152 45.406,101.378 45.509,101.128 45.296 C 100.633 44.875,99.667 44.272,99.667 44.384 M95.167 46.243 C 95.167 46.289,95.467 46.480,95.833 46.667 C 96.200 46.854,96.500 46.969,96.500 46.923 C 96.500 46.878,96.200 46.687,95.833 46.500 C 95.467 46.313,95.167 46.197,95.167 46.243 M72.500 47.917 C 72.998 48.421,73.443 48.833,73.489 48.833 C 73.534 48.833,73.165 48.421,72.667 47.917 C 72.169 47.413,71.724 47.000,71.678 47.000 C 71.632 47.000,72.002 47.413,72.500 47.917 M60.950 47.772 C 60.797 47.925,60.797 99.409,60.950 99.561 C 61.014 99.625,61.914 98.833,62.950 97.800 L 64.833 95.922 64.833 73.667 L 64.833 51.411 62.950 49.533 C 61.914 48.500,61.014 47.708,60.950 47.772 M76.667 47.770 C 76.667 47.858,77.060 48.301,77.542 48.756 L 78.417 49.583 77.583 48.670 C 77.125 48.168,76.731 47.724,76.708 47.684 C 76.685 47.644,76.667 47.683,76.667 47.770 M64.667 73.667 L 64.667 95.922 62.833 97.750 L 61.000 99.578 61.000 73.667 L 61.000 47.756 62.833 49.583 L 64.667 51.411 64.667 73.667 M106.083 49.500 C 106.905 50.325,107.614 51.000,107.660 51.000 C 107.706 51.000,107.071 50.325,106.250 49.500 C 105.429 48.675,104.719 48.000,104.674 48.000 C 104.628 48.000,105.262 48.675,106.083 49.500 M79.821 51.042 C 80.216 51.490,80.262 51.499,81.904 51.465 L 83.583 51.430 81.920 51.375 C 80.489 51.328,80.199 51.269,79.837 50.952 L 79.417 50.583 79.821 51.042 M103.417 52.167 C 104.146 52.900,104.780 53.500,104.826 53.500 C 104.871 53.500,104.312 52.900,103.583 52.167 C 102.854 51.433,102.220 50.833,102.174 50.833 C 102.129 50.833,102.688 51.433,103.417 52.167 M76.750 52.167 C 77.201 52.625,77.608 53.000,77.654 53.000 C 77.700 53.000,77.368 52.625,76.917 52.167 C 76.465 51.708,76.058 51.333,76.013 51.333 C 75.967 51.333,76.299 51.708,76.750 52.167 M84.294 51.618 C 84.501 51.658,84.801 51.656,84.960 51.615 C 85.120 51.573,84.950 51.540,84.583 51.542 C 84.217 51.544,84.086 51.578,84.294 51.618 M70.525 55.282 L 72.333 57.064 72.374 73.740 L 72.415 90.417 72.458 73.754 L 72.502 57.090 70.712 55.295 C 69.728 54.308,68.876 53.500,68.819 53.500 C 68.763 53.500,69.530 54.302,70.525 55.282 M100.583 55.500 C 101.405 56.325,102.114 57.000,102.160 57.000 C 102.206 57.000,101.571 56.325,100.750 55.500 C 99.929 54.675,99.219 54.000,99.174 54.000 C 99.128 54.000,99.762 54.675,100.583 55.500 M73.667 54.385 C 73.667 54.414,73.910 54.658,74.208 54.927 L 74.750 55.417 74.260 54.875 C 73.804 54.370,73.667 54.257,73.667 54.385 M138.208 55.625 C 139.835 55.652,142.498 55.652,144.125 55.625 C 145.752 55.597,144.421 55.575,141.167 55.575 C 137.912 55.575,136.581 55.597,138.208 55.625 M170.744 55.708 C 170.700 55.823,170.684 63.979,170.708 73.833 L 170.752 91.750 170.792 73.709 L 170.833 55.669 182.458 55.625 L 194.083 55.581 182.453 55.541 C 173.272 55.509,170.806 55.544,170.744 55.708 M205.125 55.625 C 207.165 55.651,210.502 55.651,212.542 55.625 C 214.581 55.598,212.912 55.577,208.833 55.577 C 204.754 55.577,203.085 55.598,205.125 55.625 M238.885 55.625 C 240.243 55.653,242.418 55.653,243.719 55.625 C 245.019 55.596,243.908 55.573,241.250 55.574 C 238.592 55.574,237.528 55.597,238.885 55.625 M251.083 55.618 C 255.699 55.736,259.628 55.739,259.558 55.625 C 259.515 55.556,257.179 55.516,254.365 55.536 C 251.552 55.555,250.075 55.592,251.083 55.618 M274.802 55.625 C 276.206 55.653,278.456 55.653,279.802 55.625 C 281.148 55.597,280.000 55.574,277.250 55.574 C 274.500 55.574,273.398 55.597,274.802 55.625 M297.167 55.624 L 308.833 55.669 308.833 59.666 L 308.833 63.663 302.000 63.709 L 295.167 63.756 302.042 63.753 L 308.917 63.750 308.917 59.667 L 308.917 55.583 297.208 55.582 L 285.500 55.580 297.167 55.624 M319.208 55.625 C 320.835 55.652,323.498 55.652,325.125 55.625 C 326.752 55.597,325.421 55.575,322.167 55.575 C 318.912 55.575,317.581 55.597,319.208 55.625 M81.621 55.787 C 81.917 55.824,82.442 55.824,82.788 55.788 C 83.134 55.752,82.892 55.722,82.250 55.721 C 81.608 55.721,81.325 55.750,81.621 55.787 M107.167 56.667 C 107.362 56.942,107.560 57.167,107.606 57.167 C 107.652 57.167,107.529 56.942,107.333 56.667 C 107.138 56.392,106.940 56.167,106.894 56.167 C 106.848 56.167,106.971 56.392,107.167 56.667 M97.833 58.083 C 98.608 58.862,99.280 59.500,99.326 59.500 C 99.372 59.500,98.775 58.862,98.000 58.083 C 97.225 57.304,96.553 56.667,96.507 56.667 C 96.462 56.667,97.058 57.304,97.833 58.083 M336.181 57.230 C 336.351 57.385,338.000 58.164,338.000 58.089 C 338.000 57.995,336.408 57.167,336.228 57.167 C 336.164 57.167,336.142 57.195,336.181 57.230 M78.240 58.958 C 78.652 59.415,78.836 59.496,79.406 59.472 L 80.083 59.444 79.417 59.377 C 78.998 59.336,78.564 59.145,78.250 58.864 L 77.750 58.417 78.240 58.958 M113.014 59.250 C 113.014 59.342,113.158 59.679,113.333 60.000 C 113.509 60.321,113.653 60.508,113.653 60.417 C 113.653 60.325,113.509 59.987,113.333 59.667 C 113.158 59.346,113.014 59.158,113.014 59.250 M81.375 59.623 C 81.810 59.657,82.523 59.657,82.958 59.623 C 83.394 59.588,83.037 59.560,82.167 59.560 C 81.296 59.560,80.940 59.588,81.375 59.623 M160.083 60.500 C 160.441 60.867,160.772 61.167,160.818 61.167 C 160.863 61.167,160.608 60.867,160.250 60.500 C 159.892 60.133,159.562 59.833,159.516 59.833 C 159.470 59.833,159.725 60.133,160.083 60.500 M104.750 61.000 C 104.892 61.275,105.046 61.500,105.092 61.500 C 105.138 61.500,105.059 61.275,104.917 61.000 C 104.774 60.725,104.621 60.500,104.575 60.500 C 104.529 60.500,104.608 60.725,104.750 61.000 M110.596 63.375 C 110.916 64.384,111.310 65.398,111.321 65.241 C 111.338 65.000,110.656 63.000,110.557 63.000 C 110.513 63.000,110.531 63.169,110.596 63.375 M97.077 63.958 C 97.334 64.348,97.576 64.667,97.615 64.667 C 97.735 64.667,97.097 63.652,96.847 63.446 C 96.716 63.338,96.820 63.569,97.077 63.958 M145.208 63.453 C 145.460 63.491,145.873 63.491,146.125 63.453 C 146.377 63.415,146.171 63.383,145.667 63.383 C 145.162 63.383,144.956 63.415,145.208 63.453 M215.625 63.451 C 215.831 63.491,216.169 63.491,216.375 63.451 C 216.581 63.411,216.412 63.379,216.000 63.379 C 215.588 63.379,215.419 63.411,215.625 63.451 M326.377 63.453 C 326.631 63.491,327.006 63.490,327.211 63.451 C 327.416 63.411,327.208 63.380,326.750 63.381 C 326.292 63.382,326.124 63.415,326.377 63.453 M180.407 63.882 C 180.361 64.000,180.347 65.257,180.375 66.674 L 180.426 69.250 180.463 66.544 L 180.500 63.837 187.375 63.792 L 194.250 63.746 187.370 63.706 C 181.871 63.675,180.473 63.710,180.407 63.882 M92.920 64.708 C 93.278 65.144,93.597 65.500,93.630 65.500 C 93.749 65.500,93.025 64.574,92.653 64.250 C 92.442 64.067,92.562 64.273,92.920 64.708 M229.539 65.500 C 229.539 65.821,229.573 65.952,229.615 65.792 C 229.657 65.631,229.657 65.369,229.615 65.208 C 229.573 65.048,229.539 65.179,229.539 65.500 M152.250 65.833 C 152.608 66.200,152.938 66.500,152.984 66.500 C 153.030 66.500,152.775 66.200,152.417 65.833 C 152.059 65.467,151.728 65.167,151.682 65.167 C 151.637 65.167,151.892 65.467,152.250 65.833 M102.929 66.000 C 102.990 66.229,103.110 66.529,103.195 66.667 C 103.302 66.840,103.315 66.790,103.238 66.500 C 103.176 66.271,103.057 65.971,102.972 65.833 C 102.865 65.660,102.851 65.710,102.929 66.000 M94.700 67.413 C 94.900 67.823,95.091 68.131,95.126 68.096 C 95.202 68.020,94.528 66.667,94.415 66.667 C 94.373 66.667,94.501 67.003,94.700 67.413 M229.709 67.250 C 229.711 67.617,229.745 67.747,229.785 67.540 C 229.824 67.332,229.823 67.032,229.781 66.873 C 229.739 66.714,229.707 66.883,229.709 67.250 M229.539 69.000 C 229.539 69.321,229.573 69.452,229.615 69.292 C 229.657 69.131,229.657 68.869,229.615 68.708 C 229.573 68.548,229.539 68.679,229.539 69.000 M108.042 72.250 C 108.044 72.617,108.078 72.747,108.118 72.540 C 108.158 72.332,108.156 72.032,108.115 71.873 C 108.073 71.714,108.040 71.883,108.042 72.250 M335.560 73.500 C 335.560 74.371,335.588 74.727,335.623 74.292 C 335.657 73.856,335.657 73.144,335.623 72.708 C 335.588 72.273,335.560 72.629,335.560 73.500 M116.225 73.667 C 116.225 74.446,116.254 74.765,116.289 74.375 C 116.324 73.985,116.324 73.348,116.289 72.958 C 116.254 72.569,116.225 72.887,116.225 73.667 M96.220 73.667 C 96.220 74.262,96.250 74.506,96.287 74.208 C 96.324 73.910,96.324 73.423,96.287 73.125 C 96.250 72.827,96.220 73.071,96.220 73.667 M108.039 75.167 C 108.039 75.487,108.073 75.619,108.115 75.458 C 108.157 75.298,108.157 75.035,108.115 74.875 C 108.073 74.715,108.039 74.846,108.039 75.167 M186.250 77.330 L 180.417 77.417 180.411 80.542 L 180.405 83.667 180.456 80.583 L 180.507 77.500 186.244 77.500 C 189.888 77.500,192.018 77.439,192.083 77.333 C 192.140 77.242,192.163 77.184,192.135 77.205 C 192.107 77.226,189.458 77.282,186.250 77.330 M301.000 77.333 L 295.083 77.423 300.948 77.462 C 304.721 77.486,306.850 77.441,306.917 77.333 C 306.973 77.242,306.996 77.184,306.968 77.205 C 306.940 77.226,304.254 77.284,301.000 77.333 M94.667 80.000 C 94.480 80.367,94.364 80.667,94.410 80.667 C 94.456 80.667,94.646 80.367,94.833 80.000 C 95.020 79.633,95.136 79.333,95.090 79.333 C 95.044 79.333,94.854 79.633,94.667 80.000 M211.667 79.774 C 213.047 79.897,214.796 79.907,214.725 79.792 C 214.682 79.723,213.845 79.679,212.865 79.695 C 211.885 79.710,211.346 79.746,211.667 79.774 M103.019 81.019 C 102.916 81.313,102.861 81.583,102.897 81.619 C 102.932 81.655,103.045 81.443,103.148 81.148 C 103.251 80.854,103.306 80.583,103.270 80.548 C 103.234 80.512,103.121 80.724,103.019 81.019 M111.429 81.262 C 111.367 81.506,111.349 81.738,111.389 81.777 C 111.428 81.817,111.510 81.649,111.571 81.405 C 111.633 81.161,111.651 80.929,111.611 80.889 C 111.572 80.850,111.490 81.018,111.429 81.262 M152.075 81.542 L 151.417 82.250 152.125 81.591 C 152.515 81.229,152.833 80.910,152.833 80.883 C 152.833 80.757,152.688 80.883,152.075 81.542 M110.870 83.120 C 110.672 83.731,110.537 84.259,110.571 84.293 C 110.605 84.327,110.798 83.858,111.000 83.250 C 111.202 82.642,111.337 82.115,111.300 82.077 C 111.262 82.040,111.069 82.509,110.870 83.120 M96.863 83.708 C 96.465 84.299,96.361 84.521,96.623 84.221 C 97.078 83.699,97.743 82.667,97.625 82.667 C 97.591 82.667,97.248 83.135,96.863 83.708 M257.357 83.167 C 257.357 83.304,257.421 83.567,257.500 83.750 C 257.590 83.960,257.643 83.991,257.643 83.833 C 257.643 83.696,257.579 83.433,257.500 83.250 C 257.410 83.040,257.357 83.009,257.357 83.167 M88.167 86.333 C 87.662 86.600,87.309 86.821,87.381 86.825 C 87.558 86.836,89.167 86.015,89.167 85.914 C 89.167 85.803,89.190 85.793,88.167 86.333 M113.360 87.257 C 113.081 87.870,113.134 88.001,113.436 87.444 C 113.577 87.183,113.662 86.939,113.623 86.901 C 113.585 86.863,113.467 87.023,113.360 87.257 M79.211 87.953 C 79.464 87.991,79.839 87.990,80.044 87.951 C 80.249 87.911,80.042 87.880,79.583 87.881 C 79.125 87.882,78.957 87.915,79.211 87.953 M92.417 88.265 L 91.917 88.694 92.458 88.336 C 92.756 88.139,93.000 87.945,93.000 87.905 C 93.000 87.781,92.929 87.824,92.417 88.265 M97.747 89.375 L 96.250 90.917 97.792 89.420 C 98.640 88.597,99.333 87.903,99.333 87.878 C 99.333 87.757,99.136 87.943,97.747 89.375 M78.073 88.542 L 77.583 89.083 78.125 88.594 C 78.630 88.138,78.743 88.000,78.615 88.000 C 78.586 88.000,78.342 88.244,78.073 88.542 M90.625 89.345 C 90.281 89.526,90.000 89.712,90.000 89.757 C 90.000 89.803,90.300 89.687,90.667 89.500 C 91.033 89.313,91.333 89.124,91.333 89.080 C 91.333 88.971,91.332 88.971,90.625 89.345 M75.164 91.458 L 73.417 93.250 75.208 91.503 C 76.194 90.542,77.000 89.736,77.000 89.711 C 77.000 89.591,76.786 89.794,75.164 91.458 M101.410 91.042 L 100.583 91.917 101.458 91.090 C 102.271 90.321,102.410 90.167,102.285 90.167 C 102.259 90.167,101.865 90.560,101.410 91.042 M106.833 91.167 C 106.638 91.442,106.515 91.667,106.561 91.667 C 106.606 91.667,106.804 91.442,107.000 91.167 C 107.196 90.892,107.319 90.667,107.273 90.667 C 107.227 90.667,107.029 90.892,106.833 91.167 M70.662 91.958 L 69.583 93.083 70.708 92.005 C 71.753 91.003,71.910 90.833,71.787 90.833 C 71.761 90.833,71.255 91.340,70.662 91.958 M81.708 91.619 C 81.960 91.658,82.373 91.658,82.625 91.619 C 82.877 91.581,82.671 91.550,82.167 91.550 C 81.662 91.550,81.456 91.581,81.708 91.619 M72.166 99.792 L 64.083 107.917 72.208 99.834 C 76.677 95.388,80.333 91.732,80.333 91.709 C 80.333 91.592,79.679 92.239,72.166 99.792 M99.333 93.083 C 98.928 93.496,98.635 93.833,98.681 93.833 C 98.726 93.833,99.095 93.496,99.500 93.083 C 99.905 92.671,100.199 92.333,100.153 92.333 C 100.107 92.333,99.738 92.671,99.333 93.083 M109.833 93.500 C 109.638 93.775,109.515 94.000,109.561 94.000 C 109.606 94.000,109.804 93.775,110.000 93.500 C 110.196 93.225,110.319 93.000,110.273 93.000 C 110.227 93.000,110.029 93.225,109.833 93.500 M91.167 93.917 C 90.938 94.048,90.825 94.155,90.917 94.155 C 91.008 94.155,91.271 94.048,91.500 93.917 C 91.729 93.786,91.842 93.678,91.750 93.678 C 91.658 93.678,91.396 93.786,91.167 93.917 M103.496 95.125 L 102.083 96.583 103.542 95.170 C 104.896 93.858,105.076 93.667,104.955 93.667 C 104.930 93.667,104.273 94.323,103.496 95.125 M89.000 94.750 C 88.679 94.874,88.529 94.977,88.667 94.980 C 88.804 94.983,89.142 94.882,89.417 94.756 C 90.060 94.461,89.761 94.457,89.000 94.750 M70.579 96.042 L 69.250 97.417 70.625 96.087 C 71.902 94.853,72.076 94.667,71.954 94.667 C 71.929 94.667,71.311 95.285,70.579 96.042 M87.583 95.167 C 87.373 95.257,87.342 95.310,87.500 95.310 C 87.638 95.310,87.900 95.245,88.083 95.167 C 88.293 95.076,88.324 95.023,88.167 95.023 C 88.029 95.023,87.767 95.088,87.583 95.167 M83.042 95.948 C 83.202 95.990,83.465 95.990,83.625 95.948 C 83.785 95.906,83.654 95.872,83.333 95.872 C 83.012 95.872,82.881 95.906,83.042 95.948 M106.080 97.875 L 104.583 99.417 106.125 97.920 C 106.973 97.097,107.667 96.403,107.667 96.378 C 107.667 96.257,107.470 96.443,106.080 97.875 M93.500 97.000 C 92.996 97.266,92.642 97.488,92.714 97.492 C 92.891 97.503,94.500 96.682,94.500 96.581 C 94.500 96.469,94.523 96.459,93.500 97.000 M77.420 98.663 C 76.971 99.119,76.636 99.516,76.677 99.545 C 76.717 99.574,77.118 99.201,77.567 98.716 C 78.599 97.600,78.502 97.565,77.420 98.663 M66.413 100.208 L 65.083 101.583 66.458 100.254 C 67.735 99.019,67.909 98.833,67.788 98.833 C 67.763 98.833,67.144 99.452,66.413 100.208 M89.000 103.167 C 88.665 103.274,88.649 103.301,88.917 103.305 C 89.100 103.308,89.400 103.245,89.583 103.167 C 90.008 102.984,89.570 102.984,89.000 103.167 M62.244 104.375 L 61.417 105.250 62.292 104.423 C 62.773 103.968,63.167 103.574,63.167 103.548 C 63.167 103.424,63.012 103.562,62.244 104.375 M84.708 103.948 C 84.869 103.990,85.131 103.990,85.292 103.948 C 85.452 103.906,85.321 103.872,85.000 103.872 C 84.679 103.872,84.548 103.906,84.708 103.948 M79.958 104.123 C 80.531 104.156,81.469 104.156,82.042 104.123 C 82.615 104.091,82.146 104.064,81.000 104.064 C 79.854 104.064,79.385 104.091,79.958 104.123 M72.330 105.958 L 70.583 107.750 72.375 106.003 C 74.039 104.380,74.242 104.167,74.122 104.167 C 74.097 104.167,73.291 104.973,72.330 105.958 M93.167 105.917 C 92.846 106.040,92.696 106.144,92.833 106.146 C 92.971 106.149,93.308 106.049,93.583 105.923 C 94.227 105.628,93.928 105.624,93.167 105.917 M83.875 107.782 C 84.035 107.823,84.298 107.823,84.458 107.782 C 84.619 107.740,84.487 107.705,84.167 107.705 C 83.846 107.705,83.715 107.740,83.875 107.782 M73.747 109.875 L 71.750 111.917 73.750 109.966 C 75.700 108.065,75.771 108.015,76.583 107.955 L 77.417 107.893 76.581 107.863 L 75.745 107.833 73.747 109.875 M68.255 109.995 C 67.345 110.908,66.634 111.677,66.675 111.703 C 66.716 111.730,67.496 110.982,68.408 110.042 C 69.320 109.102,70.031 108.333,69.988 108.333 C 69.945 108.333,69.166 109.081,68.255 109.995 " stroke="none" fill="#2d2f2e" fill-rule="evenodd"></path><path id="path4" d="M66.833 35.626 C 66.833 35.696,68.507 37.425,70.552 39.468 L 74.270 43.184 75.343 43.124 L 76.417 43.064 75.332 43.032 L 74.247 43.000 70.583 39.333 L 66.920 35.667 69.326 35.667 C 71.716 35.667,71.735 35.670,72.241 36.125 L 72.750 36.583 72.260 36.042 L 71.771 35.500 69.302 35.500 C 67.944 35.500,66.833 35.557,66.833 35.626 M59.103 39.635 C 59.057 39.710,62.334 43.066,66.385 47.094 L 73.750 54.417 66.422 47.046 L 59.094 39.676 61.589 39.625 L 64.083 39.574 61.635 39.537 C 60.288 39.517,59.149 39.561,59.103 39.635 M77.532 39.624 C 78.513 39.654,80.163 39.654,81.199 39.625 C 82.235 39.595,81.433 39.571,79.417 39.571 C 77.400 39.571,76.552 39.595,77.532 39.624 M72.166 47.708 C 79.434 55.014,80.299 55.831,80.749 55.808 L 81.250 55.783 80.750 55.715 C 80.351 55.660,78.615 54.022,72.167 47.615 L 64.083 39.583 72.166 47.708 M84.377 39.786 C 84.631 39.825,85.006 39.824,85.211 39.784 C 85.416 39.744,85.208 39.713,84.750 39.714 C 84.292 39.716,84.124 39.748,84.377 39.786 M82.131 43.290 C 82.615 43.324,83.365 43.323,83.797 43.289 C 84.230 43.255,83.833 43.227,82.917 43.228 C 82.000 43.228,81.646 43.256,82.131 43.290 M85.208 43.448 C 85.369 43.490,85.631 43.490,85.792 43.448 C 85.952 43.406,85.821 43.372,85.500 43.372 C 85.179 43.372,85.048 43.406,85.208 43.448 M76.833 47.795 C 76.833 47.865,77.640 48.709,78.625 49.670 L 80.417 51.417 78.673 49.628 L 76.929 47.840 80.590 47.792 L 84.250 47.743 80.542 47.705 C 78.502 47.684,76.833 47.724,76.833 47.795 M104.826 48.375 C 105.235 48.810,105.591 49.167,105.618 49.167 C 105.743 49.167,105.611 49.017,104.875 48.326 L 104.083 47.583 104.826 48.375 M61.041 73.708 L 61.082 99.583 61.125 73.855 C 61.166 49.398,61.182 48.138,61.459 48.352 C 61.695 48.535,61.690 48.507,61.433 48.205 C 61.258 48.001,61.089 47.833,61.058 47.833 C 61.026 47.833,61.019 59.477,61.041 73.708 M84.794 47.951 C 85.001 47.991,85.301 47.990,85.460 47.948 C 85.620 47.906,85.450 47.874,85.083 47.875 C 84.717 47.877,84.586 47.911,84.794 47.951 M64.291 51.183 C 64.454 51.392,64.508 56.254,64.542 73.766 L 64.585 96.083 64.626 73.729 C 64.664 52.609,64.651 51.362,64.375 51.145 C 64.117 50.943,64.107 50.947,64.291 51.183 M103.417 52.000 C 103.868 52.458,104.275 52.833,104.321 52.833 C 104.367 52.833,104.035 52.458,103.583 52.000 C 103.132 51.542,102.725 51.167,102.679 51.167 C 102.633 51.167,102.965 51.542,103.417 52.000 M83.708 51.448 C 83.869 51.490,84.131 51.490,84.292 51.448 C 84.452 51.406,84.321 51.372,84.000 51.372 C 83.679 51.372,83.548 51.406,83.708 51.448 M68.747 73.667 C 68.747 84.712,68.767 89.231,68.792 83.708 C 68.816 78.185,68.816 69.148,68.792 63.625 C 68.767 58.102,68.747 62.621,68.747 73.667 M76.167 56.917 C 77.034 57.788,77.781 58.500,77.827 58.500 C 77.873 58.500,77.201 57.788,76.333 56.917 C 75.466 56.046,74.719 55.333,74.673 55.333 C 74.627 55.333,75.299 56.046,76.167 56.917 M135.247 73.667 C 135.247 83.612,135.267 87.681,135.292 82.708 C 135.316 77.735,135.316 69.598,135.292 64.625 C 135.267 59.652,135.247 63.721,135.247 73.667 M147.877 55.786 C 148.131 55.825,148.506 55.824,148.711 55.784 C 148.916 55.744,148.708 55.713,148.250 55.714 C 147.792 55.716,147.624 55.748,147.877 55.786 M194.072 59.667 C 194.072 61.913,194.096 62.831,194.125 61.708 C 194.153 60.585,194.153 58.748,194.125 57.625 C 194.096 56.502,194.072 57.421,194.072 59.667 M201.580 73.667 C 201.580 83.612,201.600 87.681,201.625 82.708 C 201.649 77.735,201.649 69.598,201.625 64.625 C 201.600 59.652,201.580 63.721,201.580 73.667 M217.127 55.785 C 217.334 55.824,217.634 55.823,217.794 55.781 C 217.953 55.739,217.783 55.707,217.417 55.709 C 217.050 55.711,216.920 55.745,217.127 55.785 M236.414 73.667 C 236.414 83.612,236.434 87.681,236.458 82.708 C 236.483 77.735,236.483 69.598,236.458 64.625 C 236.434 59.652,236.414 63.721,236.414 73.667 M285.580 73.667 C 285.580 83.612,285.600 87.681,285.625 82.708 C 285.649 77.735,285.649 69.598,285.625 64.625 C 285.600 59.652,285.580 63.721,285.580 73.667 M328.877 55.786 C 329.131 55.825,329.506 55.824,329.711 55.784 C 329.916 55.744,329.708 55.713,329.250 55.714 C 328.792 55.716,328.624 55.748,328.877 55.786 M83.042 55.953 C 83.294 55.991,83.706 55.991,83.958 55.953 C 84.210 55.915,84.004 55.883,83.500 55.883 C 82.996 55.883,82.790 55.915,83.042 55.953 M101.167 56.219 C 101.167 56.248,101.410 56.491,101.708 56.760 L 102.250 57.250 101.760 56.708 C 101.304 56.203,101.167 56.090,101.167 56.219 M221.667 56.583 C 222.428 56.876,222.727 56.872,222.083 56.577 C 221.808 56.451,221.471 56.351,221.333 56.354 C 221.196 56.356,221.346 56.460,221.667 56.583 M333.583 56.500 C 333.767 56.579,334.029 56.643,334.167 56.643 C 334.324 56.643,334.293 56.590,334.083 56.500 C 333.900 56.421,333.637 56.357,333.500 56.357 C 333.342 56.357,333.373 56.410,333.583 56.500 M153.083 56.667 C 153.267 56.745,153.529 56.810,153.667 56.810 C 153.824 56.810,153.793 56.757,153.583 56.667 C 153.400 56.588,153.137 56.523,153.000 56.523 C 152.842 56.523,152.873 56.576,153.083 56.667 M97.833 57.917 C 98.424 58.512,98.945 59.000,98.990 59.000 C 99.036 59.000,98.591 58.512,98.000 57.917 C 97.409 57.321,96.889 56.833,96.843 56.833 C 96.797 56.833,97.243 57.321,97.833 57.917 M260.033 58.083 C 260.033 58.267,260.093 58.604,260.167 58.833 C 260.272 59.163,260.300 59.181,260.300 58.917 C 260.300 58.733,260.240 58.396,260.167 58.167 C 260.061 57.837,260.033 57.819,260.033 58.083 M281.095 59.095 C 281.034 59.339,281.016 59.571,281.055 59.611 C 281.094 59.650,281.177 59.482,281.238 59.238 C 281.299 58.994,281.317 58.762,281.278 58.723 C 281.239 58.683,281.157 58.851,281.095 59.095 M226.833 59.417 C 227.144 59.737,227.436 60.000,227.482 60.000 C 227.528 60.000,227.311 59.737,227.000 59.417 C 226.689 59.096,226.397 58.833,226.351 58.833 C 226.305 58.833,226.522 59.096,226.833 59.417 M80.625 59.455 C 81.015 59.490,81.652 59.490,82.042 59.455 C 82.431 59.420,82.112 59.392,81.333 59.392 C 80.554 59.392,80.235 59.420,80.625 59.455 M160.000 60.583 C 160.498 61.087,160.943 61.500,160.989 61.500 C 161.034 61.500,160.665 61.087,160.167 60.583 C 159.669 60.079,159.224 59.667,159.178 59.667 C 159.132 59.667,159.502 60.079,160.000 60.583 M94.583 61.000 C 94.941 61.367,95.272 61.667,95.318 61.667 C 95.363 61.667,95.108 61.367,94.750 61.000 C 94.392 60.633,94.062 60.333,94.016 60.333 C 93.970 60.333,94.225 60.633,94.583 61.000 M280.595 60.762 C 280.534 61.006,280.516 61.238,280.555 61.277 C 280.594 61.317,280.677 61.149,280.738 60.905 C 280.799 60.661,280.817 60.429,280.778 60.389 C 280.739 60.350,280.657 60.518,280.595 60.762 M87.833 60.750 C 88.063 60.881,88.325 60.988,88.417 60.988 C 88.508 60.988,88.396 60.881,88.167 60.750 C 87.938 60.619,87.675 60.512,87.583 60.512 C 87.492 60.512,87.604 60.619,87.833 60.750 M342.846 62.803 C 343.142 63.278,343.414 63.667,343.452 63.667 C 343.572 63.667,342.772 62.323,342.535 62.127 C 342.411 62.024,342.551 62.328,342.846 62.803 M92.167 63.750 C 92.665 64.254,93.109 64.667,93.155 64.667 C 93.201 64.667,92.831 64.254,92.333 63.750 C 91.835 63.246,91.391 62.833,91.345 62.833 C 91.299 62.833,91.669 63.246,92.167 63.750 M102.034 63.746 C 102.233 64.157,102.425 64.464,102.460 64.429 C 102.535 64.354,101.862 63.000,101.749 63.000 C 101.706 63.000,101.834 63.336,102.034 63.746 M114.523 63.333 C 114.523 63.471,114.588 63.733,114.667 63.917 C 114.757 64.127,114.810 64.158,114.810 64.000 C 114.810 63.862,114.745 63.600,114.667 63.417 C 114.576 63.207,114.523 63.176,114.523 63.333 M212.383 63.291 C 213.097 63.322,214.222 63.322,214.883 63.290 C 215.543 63.259,214.958 63.233,213.583 63.233 C 212.208 63.234,211.668 63.259,212.383 63.291 M325.912 73.667 C 325.912 79.396,325.933 81.740,325.958 78.875 C 325.984 76.010,325.984 71.323,325.958 68.458 C 325.933 65.594,325.912 67.938,325.912 73.667 M149.681 64.063 C 149.851 64.217,151.167 64.831,151.167 64.757 C 151.167 64.662,149.909 64.000,149.729 64.000 C 149.664 64.000,149.642 64.028,149.681 64.063 M218.667 64.046 C 218.667 64.078,218.910 64.282,219.208 64.501 C 219.544 64.746,219.660 64.786,219.514 64.606 C 219.292 64.333,218.667 63.920,218.667 64.046 M343.678 64.250 C 343.678 64.342,343.786 64.604,343.917 64.833 C 344.048 65.063,344.155 65.175,344.155 65.083 C 344.155 64.992,344.048 64.729,343.917 64.500 C 343.786 64.271,343.678 64.158,343.678 64.250 M252.023 64.833 C 252.023 64.971,252.088 65.233,252.167 65.417 C 252.257 65.627,252.310 65.658,252.310 65.500 C 252.310 65.362,252.245 65.100,252.167 64.917 C 252.076 64.707,252.023 64.676,252.023 64.833 M152.333 65.750 C 152.644 66.071,152.936 66.333,152.982 66.333 C 153.028 66.333,152.811 66.071,152.500 65.750 C 152.189 65.429,151.897 65.167,151.851 65.167 C 151.805 65.167,152.022 65.429,152.333 65.750 M163.357 66.167 C 163.357 66.304,163.421 66.567,163.500 66.750 C 163.590 66.960,163.643 66.991,163.643 66.833 C 163.643 66.696,163.579 66.433,163.500 66.250 C 163.410 66.040,163.357 66.009,163.357 66.167 M229.557 67.250 C 229.558 67.983,229.587 68.263,229.622 67.871 C 229.657 67.479,229.657 66.879,229.621 66.537 C 229.585 66.196,229.557 66.517,229.557 67.250 M220.217 67.333 C 220.217 67.837,220.248 68.044,220.286 67.792 C 220.324 67.540,220.324 67.127,220.286 66.875 C 220.248 66.623,220.217 66.829,220.217 67.333 M334.449 67.248 C 334.602 67.568,334.756 67.800,334.792 67.763 C 334.868 67.687,334.362 66.667,334.248 66.667 C 334.206 66.667,334.297 66.928,334.449 67.248 M269.259 68.759 C 269.197 69.094,269.179 69.401,269.219 69.441 C 269.260 69.482,269.345 69.242,269.407 68.907 C 269.470 68.573,269.488 68.266,269.447 68.225 C 269.407 68.184,269.322 68.425,269.259 68.759 M186.125 69.291 L 192.000 69.338 192.000 73.252 L 192.000 77.167 186.260 77.167 C 183.103 77.167,180.485 77.223,180.442 77.292 C 180.400 77.360,183.002 77.379,186.224 77.333 L 192.083 77.250 192.083 73.250 L 192.083 69.250 186.167 69.247 L 180.250 69.243 186.125 69.291 M300.958 69.291 L 306.833 69.338 306.833 73.250 L 306.833 77.162 301.042 77.209 L 295.250 77.256 301.083 77.253 L 306.917 77.250 306.917 73.250 L 306.917 69.250 301.000 69.247 L 295.083 69.243 300.958 69.291 M164.212 70.333 C 164.212 70.746,164.245 70.915,164.284 70.708 C 164.324 70.502,164.324 70.165,164.284 69.958 C 164.245 69.752,164.212 69.921,164.212 70.333 M268.771 70.854 C 268.632 71.549,268.767 71.684,268.917 71.000 C 268.980 70.712,268.997 70.441,268.955 70.399 C 268.912 70.357,268.829 70.561,268.771 70.854 M335.545 71.333 C 335.545 71.746,335.578 71.915,335.618 71.708 C 335.657 71.502,335.657 71.165,335.618 70.958 C 335.578 70.752,335.545 70.921,335.545 71.333 M345.375 71.417 C 345.377 71.783,345.411 71.914,345.451 71.706 C 345.491 71.499,345.490 71.199,345.448 71.040 C 345.406 70.880,345.374 71.050,345.375 71.417 M164.399 73.500 C 164.399 74.737,164.425 75.244,164.457 74.625 C 164.489 74.006,164.489 72.994,164.457 72.375 C 164.425 71.756,164.399 72.262,164.399 73.500 M154.564 73.583 C 154.564 74.683,154.591 75.112,154.624 74.535 C 154.656 73.959,154.656 73.059,154.623 72.535 C 154.590 72.012,154.563 72.483,154.564 73.583 M99.879 72.833 C 99.879 73.246,99.911 73.415,99.951 73.208 C 99.991 73.002,99.991 72.665,99.951 72.458 C 99.911 72.252,99.879 72.421,99.879 72.833 M104.393 73.667 C 104.393 74.537,104.422 74.894,104.456 74.458 C 104.490 74.023,104.490 73.310,104.456 72.875 C 104.422 72.440,104.393 72.796,104.393 73.667 M277.095 72.595 C 277.034 72.839,277.016 73.071,277.055 73.111 C 277.094 73.150,277.177 72.982,277.238 72.738 C 277.299 72.494,277.317 72.262,277.278 72.223 C 277.239 72.183,277.157 72.351,277.095 72.595 M335.721 73.583 C 335.722 74.225,335.752 74.467,335.788 74.121 C 335.824 73.775,335.824 73.250,335.787 72.955 C 335.750 72.659,335.721 72.942,335.721 73.583 M108.052 73.750 C 108.053 74.300,108.084 74.505,108.121 74.205 C 108.158 73.906,108.157 73.456,108.119 73.205 C 108.081 72.955,108.051 73.200,108.052 73.750 M112.545 73.667 C 112.545 74.079,112.578 74.248,112.618 74.042 C 112.657 73.835,112.657 73.498,112.618 73.292 C 112.578 73.085,112.545 73.254,112.545 73.667 M276.762 73.762 C 276.701 74.006,276.683 74.238,276.722 74.277 C 276.761 74.317,276.843 74.149,276.905 73.905 C 276.966 73.661,276.984 73.429,276.945 73.389 C 276.906 73.350,276.823 73.518,276.762 73.762 M263.867 74.083 C 263.867 74.267,263.927 74.604,264.000 74.833 C 264.106 75.163,264.133 75.181,264.133 74.917 C 264.133 74.733,264.073 74.396,264.000 74.167 C 263.894 73.837,263.867 73.819,263.867 74.083 M99.875 74.583 C 99.877 74.950,99.911 75.080,99.951 74.873 C 99.991 74.666,99.990 74.366,99.948 74.206 C 99.906 74.047,99.874 74.217,99.875 74.583 M276.348 75.182 C 276.236 75.558,276.174 75.896,276.212 75.934 C 276.249 75.971,276.372 75.694,276.485 75.318 C 276.598 74.942,276.659 74.604,276.622 74.566 C 276.584 74.529,276.461 74.806,276.348 75.182 M226.244 75.875 L 225.417 76.750 226.292 75.923 C 226.773 75.468,227.167 75.074,227.167 75.048 C 227.167 74.924,227.012 75.062,226.244 75.875 M335.548 75.750 C 335.549 76.208,335.581 76.376,335.620 76.123 C 335.658 75.869,335.657 75.494,335.617 75.289 C 335.578 75.084,335.546 75.292,335.548 75.750 M345.372 75.667 C 345.372 75.987,345.406 76.119,345.448 75.958 C 345.490 75.798,345.490 75.535,345.448 75.375 C 345.406 75.215,345.372 75.346,345.372 75.667 M264.200 75.583 C 264.200 75.767,264.260 76.104,264.333 76.333 C 264.439 76.663,264.467 76.681,264.467 76.417 C 264.467 76.233,264.407 75.896,264.333 75.667 C 264.228 75.337,264.200 75.319,264.200 75.583 M164.212 76.667 C 164.212 77.079,164.245 77.248,164.284 77.042 C 164.324 76.835,164.324 76.498,164.284 76.292 C 164.245 76.085,164.212 76.254,164.212 76.667 M224.542 77.183 C 224.152 77.459,223.833 77.750,223.833 77.830 C 223.833 77.910,224.002 77.832,224.208 77.657 C 224.415 77.483,224.771 77.191,225.000 77.009 C 225.633 76.506,225.341 76.617,224.542 77.183 M264.528 77.083 C 264.526 77.267,264.588 77.567,264.667 77.750 C 264.849 78.175,264.849 77.737,264.667 77.167 C 264.559 76.832,264.532 76.815,264.528 77.083 M163.882 78.583 C 163.773 79.219,163.711 79.767,163.744 79.800 C 163.843 79.899,164.195 78.021,164.136 77.712 C 164.105 77.554,163.991 77.946,163.882 78.583 M335.104 78.021 C 334.965 78.716,335.100 78.850,335.250 78.167 C 335.313 77.879,335.330 77.608,335.288 77.566 C 335.245 77.523,335.163 77.728,335.104 78.021 M255.857 77.833 C 255.857 77.971,255.921 78.233,256.000 78.417 C 256.090 78.627,256.143 78.658,256.143 78.500 C 256.143 78.362,256.079 78.100,256.000 77.917 C 255.910 77.707,255.857 77.676,255.857 77.833 M256.192 79.000 C 256.192 79.137,256.293 79.512,256.417 79.833 C 256.540 80.154,256.641 80.304,256.641 80.167 C 256.641 80.029,256.540 79.654,256.417 79.333 C 256.293 79.012,256.192 78.862,256.192 79.000 M212.874 79.621 L 214.666 79.678 215.003 80.339 C 215.188 80.703,215.382 81.000,215.433 81.000 C 215.483 81.000,215.349 80.681,215.135 80.292 L 214.744 79.583 212.914 79.574 L 211.083 79.565 212.874 79.621 M256.692 80.667 C 256.692 80.804,256.793 81.179,256.917 81.500 C 257.040 81.821,257.141 81.971,257.141 81.833 C 257.141 81.696,257.040 81.321,256.917 81.000 C 256.793 80.679,256.692 80.529,256.692 80.667 M152.158 81.625 L 151.583 82.250 152.208 81.676 C 152.790 81.141,152.910 81.000,152.783 81.000 C 152.755 81.000,152.474 81.281,152.158 81.625 M93.667 81.833 C 93.471 82.108,93.348 82.333,93.394 82.333 C 93.440 82.333,93.638 82.108,93.833 81.833 C 94.029 81.558,94.152 81.333,94.106 81.333 C 94.060 81.333,93.862 81.558,93.667 81.833 M332.256 82.353 C 331.380 83.011,331.298 83.120,331.970 82.734 C 332.443 82.463,333.186 81.811,332.984 81.845 C 332.947 81.851,332.619 82.080,332.256 82.353 M226.583 82.833 C 226.726 83.108,226.879 83.333,226.925 83.333 C 226.971 83.333,226.892 83.108,226.750 82.833 C 226.608 82.558,226.454 82.333,226.408 82.333 C 226.362 82.333,226.441 82.558,226.583 82.833 M343.568 83.036 C 343.393 83.424,342.966 84.194,342.620 84.746 C 342.241 85.350,342.158 85.551,342.411 85.250 C 342.891 84.681,344.069 82.513,343.958 82.403 C 343.918 82.363,343.743 82.648,343.568 83.036 M92.079 83.708 L 90.917 84.917 92.125 83.754 C 92.790 83.115,93.333 82.572,93.333 82.546 C 93.333 82.424,93.158 82.586,92.079 83.708 M101.951 83.755 C 101.705 84.256,101.539 84.667,101.582 84.667 C 101.695 84.667,102.535 82.980,102.460 82.905 C 102.426 82.871,102.197 83.253,101.951 83.755 M114.595 83.595 C 114.534 83.839,114.516 84.071,114.555 84.111 C 114.594 84.150,114.677 83.982,114.738 83.738 C 114.799 83.494,114.817 83.262,114.778 83.223 C 114.739 83.183,114.657 83.351,114.595 83.595 M309.405 87.667 C 309.405 89.912,309.429 90.831,309.458 89.708 C 309.487 88.585,309.487 86.748,309.458 85.625 C 309.429 84.502,309.405 85.421,309.405 87.667 M217.917 86.000 C 218.240 86.642,218.542 87.167,218.588 87.167 C 218.633 87.167,218.406 86.642,218.083 86.000 C 217.760 85.358,217.458 84.833,217.412 84.833 C 217.367 84.833,217.594 85.358,217.917 86.000 M94.577 86.375 L 93.750 87.250 94.625 86.423 C 95.438 85.654,95.576 85.500,95.452 85.500 C 95.426 85.500,95.032 85.894,94.577 86.375 M340.910 86.875 L 340.083 87.750 340.958 86.923 C 341.771 86.154,341.910 86.000,341.785 86.000 C 341.759 86.000,341.365 86.394,340.910 86.875 M80.792 87.954 C 81.090 87.991,81.577 87.991,81.875 87.954 C 82.173 87.917,81.929 87.887,81.333 87.887 C 80.737 87.887,80.494 87.917,80.792 87.954 M272.429 88.429 C 272.367 88.673,272.349 88.905,272.389 88.944 C 272.428 88.983,272.510 88.816,272.571 88.571 C 272.633 88.327,272.651 88.095,272.611 88.056 C 272.572 88.017,272.490 88.184,272.429 88.429 M97.746 89.542 L 96.583 90.750 97.792 89.588 C 98.914 88.508,99.076 88.333,98.954 88.333 C 98.928 88.333,98.385 88.877,97.746 89.542 M155.833 89.667 C 155.329 89.933,154.975 90.154,155.047 90.159 C 155.224 90.169,156.833 89.348,156.833 89.247 C 156.833 89.136,156.856 89.126,155.833 89.667 M220.000 90.000 C 220.187 90.367,220.378 90.667,220.423 90.667 C 220.469 90.667,220.354 90.367,220.167 90.000 C 219.980 89.633,219.789 89.333,219.743 89.333 C 219.697 89.333,219.813 89.633,220.000 90.000 M271.929 90.095 C 271.867 90.339,271.849 90.571,271.889 90.611 C 271.928 90.650,272.010 90.482,272.071 90.238 C 272.133 89.994,272.151 89.762,272.111 89.723 C 272.072 89.683,271.990 89.851,271.929 90.095 M231.250 91.167 C 231.392 91.442,231.546 91.667,231.592 91.667 C 231.638 91.667,231.559 91.442,231.417 91.167 C 231.274 90.892,231.121 90.667,231.075 90.667 C 231.029 90.667,231.108 90.892,231.250 91.167 M80.542 91.615 C 80.702 91.657,80.965 91.657,81.125 91.615 C 81.285 91.573,81.154 91.539,80.833 91.539 C 80.512 91.539,80.381 91.573,80.542 91.615 M72.087 99.663 L 64.093 107.659 61.505 107.709 L 58.917 107.759 61.501 107.796 L 64.085 107.833 72.167 99.750 C 76.612 95.304,80.211 91.667,80.165 91.667 C 80.120 91.667,76.484 95.265,72.087 99.663 M110.167 92.833 C 109.971 93.108,109.848 93.333,109.894 93.333 C 109.940 93.333,110.138 93.108,110.333 92.833 C 110.529 92.558,110.652 92.333,110.606 92.333 C 110.560 92.333,110.362 92.558,110.167 92.833 M103.662 95.125 L 102.583 96.250 103.708 95.171 C 104.327 94.578,104.833 94.072,104.833 94.046 C 104.833 93.924,104.664 94.080,103.662 95.125 M107.573 96.208 L 107.083 96.750 107.625 96.260 C 107.923 95.991,108.167 95.748,108.167 95.719 C 108.167 95.590,108.029 95.703,107.573 96.208 M78.497 97.792 L 76.750 99.583 78.542 97.836 C 79.527 96.875,80.333 96.069,80.333 96.045 C 80.333 95.924,80.120 96.128,78.497 97.792 M89.667 98.417 C 89.346 98.540,89.196 98.644,89.333 98.646 C 89.471 98.649,89.808 98.549,90.083 98.423 C 90.727 98.128,90.428 98.124,89.667 98.417 M104.573 99.208 L 104.083 99.750 104.625 99.260 C 104.923 98.991,105.167 98.748,105.167 98.719 C 105.167 98.590,105.029 98.703,104.573 99.208 M83.460 99.618 C 83.668 99.658,83.968 99.656,84.127 99.615 C 84.286 99.573,84.117 99.540,83.750 99.542 C 83.383 99.544,83.253 99.578,83.460 99.618 M94.833 101.250 C 94.604 101.381,94.492 101.488,94.583 101.488 C 94.675 101.488,94.938 101.381,95.167 101.250 C 95.396 101.119,95.508 101.012,95.417 101.012 C 95.325 101.012,95.063 101.119,94.833 101.250 M83.292 104.118 C 83.498 104.157,83.835 104.157,84.042 104.118 C 84.248 104.078,84.079 104.045,83.667 104.045 C 83.254 104.045,83.085 104.078,83.292 104.118 M70.540 107.876 C 68.501 109.917,66.833 111.627,66.833 111.677 C 66.833 111.726,68.496 110.098,70.528 108.059 C 73.781 104.795,74.295 104.342,74.820 104.286 L 75.417 104.223 74.832 104.195 C 74.280 104.168,74.038 104.376,70.540 107.876 M80.798 107.790 C 81.375 107.823,82.275 107.823,82.798 107.790 C 83.322 107.757,82.850 107.730,81.750 107.730 C 80.650 107.731,80.222 107.758,80.798 107.790 " stroke="none" fill="#5b7554" fill-rule="evenodd"></path></g></svg>